G04 MADE WITH FRITZING*
G04 WWW.FRITZING.ORG*
G04 DOUBLE SIDED*
G04 HOLES PLATED*
G04 CONTOUR ON CENTER OF CONTOUR VECTOR*
%ASAXBY*%
%FSLAX23Y23*%
%MOIN*%
%OFA0B0*%
%SFA1.0B1.0*%
%ADD10C,0.098425*%
%ADD11C,0.066000*%
%ADD12C,0.070000*%
%ADD13R,0.069972X0.070000*%
%ADD14C,0.024000*%
%ADD15R,0.001000X0.001000*%
%LNCOPPER1*%
G90*
G70*
G54D10*
X364Y884D03*
G54D11*
X1004Y62D03*
X1004Y162D03*
X204Y162D03*
X204Y262D03*
X204Y362D03*
X204Y462D03*
X204Y562D03*
X204Y662D03*
X204Y762D03*
X204Y862D03*
X204Y962D03*
X204Y1062D03*
X204Y1162D03*
X204Y1262D03*
X1004Y362D03*
X1004Y562D03*
X1004Y262D03*
X1004Y762D03*
X1004Y462D03*
X1004Y962D03*
X1004Y662D03*
X1004Y1162D03*
X1004Y862D03*
X1004Y1062D03*
X1004Y1262D03*
G54D10*
X224Y1634D03*
G54D12*
X54Y2274D03*
X54Y2174D03*
X54Y2074D03*
X54Y1974D03*
X54Y1874D03*
X54Y1774D03*
X54Y1674D03*
X54Y1574D03*
X54Y1474D03*
X54Y1374D03*
X54Y1274D03*
X54Y1174D03*
X54Y1074D03*
X54Y974D03*
X54Y874D03*
X654Y2274D03*
X654Y2174D03*
X654Y2074D03*
X654Y1974D03*
X654Y1874D03*
X654Y1774D03*
X654Y1674D03*
X654Y1574D03*
X654Y1474D03*
X654Y1374D03*
X654Y1274D03*
X654Y1174D03*
X654Y1074D03*
X654Y974D03*
X654Y874D03*
G54D10*
X824Y1844D03*
X814Y184D03*
G54D13*
X54Y2274D03*
G54D14*
X224Y2174D02*
X224Y1664D01*
D02*
X72Y2174D02*
X224Y2174D01*
D02*
X364Y914D02*
X364Y2274D01*
D02*
X364Y2274D02*
X365Y2275D01*
D02*
X365Y2275D02*
X72Y2274D01*
D02*
X984Y62D02*
X812Y65D01*
D02*
X822Y2174D02*
X672Y2174D01*
D02*
X812Y65D02*
X822Y2174D01*
G54D15*
D02*
G04 End of Copper1*
M02*