; NON-PLATED HOLES START AT T1
; THROUGH (PLATED) HOLES START AT T100
M48
INCH
T100C0.039370
T101C0.036000
T102C0.059055
%
T100
X002039Y001620
X010039Y006620
X010039Y009620
X010039Y011620
X002039Y009620
X002039Y004620
X010039Y012620
X010039Y008620
X002039Y006620
X010039Y010620
X002039Y003620
X002039Y007620
X010039Y005620
X002039Y002620
X002039Y012620
X002039Y008620
X002039Y005620
X010039Y003620
X010039Y001620
X002039Y011620
X010039Y002620
X010039Y004620
X002039Y010620
X010039Y000620
X010039Y007620
T101
X006539Y013741
X006539Y017741
X006539Y012741
X006539Y015741
X006539Y022741
X000539Y022741
X006539Y020741
X000539Y017741
X006539Y014741
X006539Y018741
X006539Y019741
X000539Y008741
X000539Y021741
X006539Y021741
X006539Y008741
X000539Y014741
X000539Y015741
X000539Y016741
X006539Y010741
X000539Y010741
X000539Y018741
X006539Y011741
X000539Y011741
X000539Y009741
X000539Y012741
X000539Y019741
X006539Y016741
X000539Y020741
X000539Y013741
X006539Y009741
T102
X002239Y016341
X008139Y001841
X003639Y008841
X008239Y018441
T00
M30
